<?xml version="1.0" encoding="utf-8"?>
<!-- Generator: Adobe Illustrator 19.0.0, SVG Export Plug-In . SVG Version: 6.00 Build 0)  -->
<svg version="1.1" id="Calque_1" xmlns="http://www.w3.org/2000/svg" xmlns:xlink="http://www.w3.org/1999/xlink" x="0px" y="0px"
	 viewBox="0 0 946 224" style="enable-background:new 0 0 946 224;" xml:space="preserve">
<style type="text/css">
	.st0{fill:#004F55;}
	.st1{fill:#009BA8;}
	.st2{fill:#75001E;}
	.st3{fill:#FF3366;}
</style>
<g>
	<g>
		<path class="st0" d="M87.6,7.6L0,75.2c0,0,30.5,26.8,31.2,91.3c46.4-36.4,46.4-36.4,46.4-36.4l25.2-88.7l-7.7-22
			C95.1,19.5,91.9,13.2,87.6,7.6z"/>
		<path class="st1" d="M119.1,0c0,0,27.5,29.8,7.5,91.8c-95.4,74.7-95.4,74.7-95.4,74.7s31.9-39.9,1.1-95.9C119.1,0,119.1,0,119.1,0
			z"/>
	</g>
	<g>
		<path class="st2" d="M203.8,155.2L117.2,224c0,0-18.7-36.1-81.2-52.1c46.4-36.4,46.4-36.4,46.4-36.4l92.2-3.3l19.5,12.8
			C194.1,145,199.4,149.6,203.8,155.2z"/>
		<path class="st3" d="M218.7,126.4c0,0-22.4-33.8-87.4-29.2C36,171.9,36,171.9,36,171.9s46.3-21.4,93.3,21.9
			C218.7,126.4,218.7,126.4,218.7,126.4z"/>
	</g>
	<g>
		<polygon class="st1" points="298.8,46.9 264.2,46.9 264.2,180 319.8,180 319.8,153.3 298.8,153.3 		"/>
		<rect x="327.7" y="46.9" class="st1" width="34.2" height="17.3"/>
		<rect x="327.7" y="70.9" class="st1" width="34.2" height="109"/>
		<path class="st1" d="M410.2,107.7c-1.8,22.7-3,36.9-3.7,42.8l-9.3-79.6h-29.6l16.7,109h43.4l15.5-109h-29.6
			C412.2,82.8,411.1,95.1,410.2,107.7z"/>
		<path class="st1" d="M480.3,85.3l1.3-14.3h-33.2v109h33.2v-43.1c0-10.6,0.3-17.3,1-20.3c0.7-2.9,2.4-5.2,5.3-6.9
			c2.8-1.6,7.3-2.5,13.4-2.5V68.9C492.1,69.6,485.1,75,480.3,85.3z"/>
		<path class="st3" d="M570.5,74.9c-5.7-4-14.2-6-25.4-6c-9.4,0-17,1.8-22.8,5.3c-5.9,3.5-9.8,7.5-11.7,12.1
			c-1.9,4.6-2.9,11.1-2.9,19.5v7.3h31.1v-11.4c0-6.1,0.3-9.8,0.8-11.3c0.5-1.5,1.9-2.2,4.2-2.2c2,0,3.4,0.9,4.2,2.6
			c0.9,1.7,1.3,5.4,1.3,11.1c0,4.5-0.4,7.6-1.1,9c-0.8,1.5-6.6,4.4-17.5,8.6c-10.2,3.9-16.6,7.4-19.1,10.4c-2.6,3-3.9,8.5-3.9,16.7
			v9c0,11,2.4,18.1,7.3,21.4c4.8,3.3,10.2,4.9,16,4.9c4.4,0,8.3-1,11.5-2.9c3.2-1.9,5.8-4.9,7.8-8.8v9.7h32.3v-54.7
			c0-18-0.6-29.9-1.7-35.7C579.6,83.8,576.2,78.9,570.5,74.9z M549.3,150.5c0,5.5-0.3,8.9-0.9,10.1c-0.6,1.3-2,1.9-4.1,1.9
			c-2.2,0-3.7-0.8-4.4-2.5c-0.7-1.6-1.1-5.3-1.1-10.9c0-4.9,0.4-8.7,1.3-11.3c0.8-2.6,3.9-5.9,9.2-9.8V150.5z"/>
		<path class="st3" d="M636.7,77.8c-2.8-3-5.9-5.2-9.3-6.7c-3.4-1.5-7.2-2.2-11.3-2.2c-5.3,0-9.9,1.3-13.7,4
			c-3.8,2.7-6.3,5.7-7.4,9.2c-1.1,3.5-1.6,9.4-1.6,17.8v51c0,8.1,0.5,13.9,1.6,17.4c1.1,3.6,3.5,6.7,7.3,9.4
			c3.8,2.7,8.2,4.1,13.4,4.1c3.8,0,7.5-0.8,11-2.5c3.5-1.6,6.8-4.1,10-7.4v7.9h33.2v-133h-33.2V77.8z M636.7,148.8
			c0,6.1-0.4,9.9-1.1,11.5c-0.7,1.6-2.1,2.3-4.3,2.3c-1.9,0-3.1-0.7-3.8-2.1c-0.7-1.4-1-4.3-1-8.8V98.4c0-4.3,0.3-7,1-8.3
			c0.7-1.2,2-1.8,4-1.8c2,0,3.4,0.7,4.1,2.1c0.7,1.4,1,4.1,1,8.1V148.8z"/>
		<path class="st3" d="M724.7,77.8c-2.8-3-5.9-5.2-9.3-6.7c-3.4-1.5-7.2-2.2-11.3-2.2c-5.3,0-9.9,1.3-13.7,4
			c-3.8,2.7-6.3,5.7-7.4,9.2c-1.1,3.5-1.6,9.4-1.6,17.8v51c0,8.1,0.5,13.9,1.6,17.4c1.1,3.6,3.5,6.7,7.3,9.4
			c3.8,2.7,8.2,4.1,13.4,4.1c3.8,0,7.5-0.8,11-2.5c3.5-1.6,6.8-4.1,10-7.4v7.9h33.2v-133h-33.2V77.8z M724.7,148.8
			c0,6.1-0.4,9.9-1.1,11.5c-0.7,1.6-2.1,2.3-4.3,2.3c-1.9,0-3.1-0.7-3.8-2.1c-0.7-1.4-1-4.3-1-8.8V98.4c0-4.3,0.3-7,1-8.3
			c0.7-1.2,2-1.8,4-1.8c2,0,3.4,0.7,4.1,2.1c0.7,1.4,1,4.1,1,8.1V148.8z"/>
		<rect x="770.3" y="70.9" class="st3" width="34.2" height="109"/>
		<rect x="770.3" y="46.9" class="st3" width="34.2" height="17.3"/>
		<path class="st3" d="M890.3,112.1c0-10.2-1-18.2-3-23.7c-2-5.6-6.1-10.2-12.2-13.9c-6.1-3.7-13.5-5.5-22.2-5.5
			c-8.7,0-16.1,1.8-22.2,5.5c-6.1,3.7-10.1,7.9-11.9,12.6c-1.9,4.7-2.8,11.7-2.8,21v31c0,10.6,1.1,18.8,3.4,24.6
			c2.3,5.8,6.1,10.3,11.6,13.5c5.5,3.2,12.9,4.8,22.3,4.8c7.3,0,13.5-1.2,18.5-3.5c5-2.3,9-5.8,12.1-10.4c3.1-4.6,4.9-9,5.5-13.4
			c0.6-4.4,0.9-10.9,0.9-19.6h-29.6v13c0,5.6-0.4,9.5-1.2,11.5c-0.8,2-2.3,3-4.6,3c-1.9,0-3.4-1-4.4-2.9c-1-1.9-1.5-4.9-1.5-8.8
			V99.5c0-4.8,0.3-7.8,1-9.2c0.7-1.4,1.9-2.1,3.9-2.1c1.9,0,3.2,0.8,3.9,2.3c0.7,1.6,1.1,4.5,1.1,8.9v12.6H890.3z"/>
		<path class="st3" d="M936.8,161.1c-0.7-0.8-1.1-4.8-1.1-12V90.8h9V73.5h-9V56.4h-33.3v17.2h-7.1v17.3h7.1v55.4
			c0,10.8,0.3,17.7,0.9,20.7c0.6,2.9,2.1,5.5,4.6,7.8c2.5,2.3,5.3,3.7,8.5,4.4c3.2,0.6,8.6,0.9,16.2,0.9H946v-17.6
			C940.6,162.4,937.5,162,936.8,161.1z"/>
	</g>
</g>
</svg>
